<?xml version="1.0" encoding="utf-8"?>
<!-- Generator: Adobe Illustrator 26.1.0, SVG Export Plug-In . SVG Version: 6.00 Build 0)  -->
<svg version="1.1" id="Layer_1" xmlns="http://www.w3.org/2000/svg" xmlns:xlink="http://www.w3.org/1999/xlink" x="0px" y="0px"
	 viewBox="0 0 42 42" style="enable-background:new 0 0 42 42;" xml:space="preserve">
<style type="text/css">
	.st0{fill-rule:evenodd;clip-rule:evenodd;fill:#FFFFFF;}
</style>
<path class="st0" d="M25.3,37.1c0.2,0.4-0.2,0.7-0.6,0.5l-17-11.1c-1.3-0.7-1-2.2,0-2.6l9.5-3.5c0.4-0.1,0.8,0,0.9,0.4L25.3,37.1
	L25.3,37.1z"/>
<path class="st0" d="M40.9,35l-10.4,4.5c-0.7,0.3-1.5-0.1-1.8-0.8l-13.4-31c-0.3-0.7,0-1.6,0.6-1.9l10.4-4.5C27,1,27.8,1.3,28.1,2.1
	l13.4,31C41.8,33.8,41.6,34.7,40.9,35"/>
<path class="st0" d="M13.6,10.2c0.7,1.7,2.4,5.6,3.1,7.1c0,0.1,0.1,0.2,0.1,0.3c0,0.1,0,0.2-0.1,0.3c0,0.1-0.1,0.2-0.1,0.2
	s-0.1,0.1-0.2,0.1l-7.3,2.7c-0.1,0-0.1,0-0.2,0c-0.1,0-0.1-0.1-0.2-0.1c-0.1-0.1-0.1-0.1-0.1-0.2c0-0.1,0-0.2,0-0.2L13,10.2
	c0-0.1,0.1-0.1,0.1-0.2c0.1,0,0.1-0.1,0.2-0.1c0.1,0,0.1,0,0.2,0.1C13.6,10.1,13.6,10.1,13.6,10.2z M14,33.3L6,28
	c-0.1,0-0.2-0.1-0.2-0.1c-0.1,0-0.2,0-0.3,0c-0.1,0-0.2,0.1-0.2,0.1c-0.1,0.1-0.1,0.1-0.2,0.2L0.6,38.7c-0.2,0.5,0.3,1.1,0.8,0.8
	L14,34.1c0.1,0,0.1-0.1,0.2-0.1c0-0.1,0.1-0.1,0.1-0.2c0-0.1,0-0.2,0-0.2C14.2,33.4,14.1,33.4,14,33.3"/>
</svg>
