<?xml version="1.0" encoding="utf-8"?>
<!-- Generator: Adobe Illustrator 26.1.0, SVG Export Plug-In . SVG Version: 6.00 Build 0)  -->
<svg version="1.1"
	 id="svg3476" sodipodi:docname="CSS3.svg" xmlns:cc="http://creativecommons.org/ns#" xmlns:dc="http://purl.org/dc/elements/1.1/" xmlns:inkscape="http://www.inkscape.org/namespaces/inkscape" xmlns:rdf="http://www.w3.org/1999/02/22-rdf-syntax-ns#" xmlns:sodipodi="http://sodipodi.sourceforge.net/DTD/sodipodi-0.dtd" xmlns:svg="http://www.w3.org/2000/svg"
	 xmlns="http://www.w3.org/2000/svg" xmlns:xlink="http://www.w3.org/1999/xlink" x="0px" y="0px" viewBox="0 0 290.2 329.1"
	 style="enable-background:new 0 0 290.2 329.1;" xml:space="preserve">
<style type="text/css">
	.st0{fill:#264DE4;}
	.st1{fill:#2965F1;}
	.st2{fill:#EBEBEB;}
	.st3{fill:#FFFFFF;}
</style>
<sodipodi:namedview  bordercolor="#666666" borderopacity="1.0" fit-margin-bottom="0" fit-margin-left="0" fit-margin-right="0" fit-margin-top="0" id="base" inkscape:current-layer="layer1" inkscape:cx="181.367" inkscape:cy="256" inkscape:document-units="px" inkscape:pageopacity="0.0" inkscape:pageshadow="2" inkscape:window-height="704" inkscape:window-maximized="1" inkscape:window-width="1366" inkscape:window-x="0" inkscape:window-y="27" inkscape:zoom="0.35" pagecolor="#ffffff" showgrid="false">
	</sodipodi:namedview>
<g id="g3013" transform="translate(119,276.3622)">
	<polygon id="polygon2989" class="st0" points="171.2,-276.4 144.8,19.8 25.9,52.7 -92.6,19.8 -119,-276.4 	"/>
	<polygon id="polygon2991" class="st1" points="122.1,0.9 144.7,-252.1 26.1,-252.1 26.1,27.6 	"/>
	<polygon id="polygon2993" class="st2" points="-58.5,-142.3 -55.2,-106 26.1,-106 26.1,-142.3 	"/>
	<polygon id="polygon2995" class="st2" points="26.1,-215.8 26,-215.8 -65,-215.8 -61.7,-179.5 26.1,-179.5 	"/>
	<polygon id="polygon2997" class="st2" points="26.1,-10.1 26.1,-47.9 25.9,-47.9 -14.5,-58.8 -17.1,-87.8 -36.8,-87.8 -53.6,-87.8 
		-48.5,-30.8 25.9,-10.1 	"/>
	<polygon id="polygon3005" class="st3" points="70.7,-106 66.5,-58.8 26,-47.9 26,-10.1 100.4,-30.8 101,-36.9 109.5,-132.5 
		110.4,-142.3 117,-215.8 26,-215.8 26,-179.5 77.2,-179.5 73.9,-142.3 26,-142.3 26,-106 	"/>
</g>
</svg>
