<?xml version="1.0" encoding="utf-8"?>
<!-- Generator: Adobe Illustrator 26.1.0, SVG Export Plug-In . SVG Version: 6.00 Build 0)  -->
<svg version="1.1"
	 id="svg56" sodipodi:docname="Webpack.svg" xmlns:cc="http://creativecommons.org/ns#" xmlns:dc="http://purl.org/dc/elements/1.1/" xmlns:inkscape="http://www.inkscape.org/namespaces/inkscape" xmlns:rdf="http://www.w3.org/1999/02/22-rdf-syntax-ns#" xmlns:sodipodi="http://sodipodi.sourceforge.net/DTD/sodipodi-0.dtd" xmlns:svg="http://www.w3.org/2000/svg"
	 xmlns="http://www.w3.org/2000/svg" xmlns:xlink="http://www.w3.org/1999/xlink" x="0px" y="0px" viewBox="0 0 1003.9 1117.7"
	 style="enable-background:new 0 0 1003.9 1117.7;" xml:space="preserve">
<style type="text/css">
	.st0{fill:#FFFFFF;}
	.st1{fill:#8ED6FB;}
	.st2{fill:#1C78C0;}
</style>
<sodipodi:namedview  bordercolor="#666666" borderopacity="1" gridtolerance="10" guidetolerance="10" id="namedview58" inkscape:current-layer="svg56" inkscape:cx="2328.4012" inkscape:cy="431.22766" inkscape:pageopacity="0" inkscape:pageshadow="2" inkscape:window-height="745" inkscape:window-maximized="1" inkscape:window-width="1366" inkscape:window-x="-8" inkscape:window-y="-8" inkscape:zoom="0.18815252" objecttolerance="10" pagecolor="#ffffff" showgrid="false">
	</sodipodi:namedview>
<path id="path48" class="st0" d="M510,0l493.9,279.4v558.9L510,1117.7L16.1,838.3V279.4L510,0z"/>
<path id="path50" class="st1" d="M915.8,819l-389.4,220.3V867.8L769,734.3L915.8,819z M942.4,794.9V334.3L800,416.6v296.1
	L942.4,794.9z M102.7,819l389.4,220.3V867.8L249.4,734.3L102.7,819z M76.1,794.9V334.3l142.4,82.3v296.1L76.1,794.9z M92.8,304.4
	L492.1,78.5v165.8L236.2,385.1l-2,1.1L92.8,304.4z M925.7,304.4L526.4,78.5v165.8l255.9,140.6l2,1.1L925.7,304.4z"/>
<path id="path52" class="st2" d="M492.1,828.7L252.7,697V436.2l239.4,138.2V828.7z M526.4,828.7l239.4-131.6V436.2L526.4,574.5
	L526.4,828.7z M268.9,406.1L509.3,274l240.3,132.1L509.3,544.9L268.9,406.1z"/>
</svg>
